# xmcd
#
# Track frame offsets:
#	150
#	20466
#	37895
#	58224
#	76271
#	85874
#	92377
#	109738
#	123725
#	142359
#	157803
#	174857
#	187665
#	202913
#	222748
#	240371
#	257641
#	274003
#
# Disc length: 3887 seconds
#
# Revision: 0
# Processed by: cddbd v1.5.2PL0 Copyright (c) Steve Scherf et al.
# Submitted via: EasyCDDAExtractor 12.0.7.1
#
DISCID=ea0f2d12
DTITLE=Ефрем Амирамов - Аллея шансона
DYEAR=2011
DGENRE=Chanson
TTITLE0=Молодая (Remake)
TTITLE1=Аленка
TTITLE2=Поход
TTITLE3=Любимая моя
TTITLE4=Саксофон
TTITLE5=Надым
TTITLE6=Только не ты
TTITLE7=Последний менестрель
TTITLE8=Каким меня ты ядом напоила
TTITLE9=Дом на колесах
TTITLE10=Цвет ночного неба между звезд
TTITLE11=Брожу-гуляю
TTITLE12=Искры в камине
TTITLE13=Судьба
TTITLE14=Соловей и роза
TTITLE15=Замок коварства и любви
TTITLE16=Камелия
TTITLE17=Рано или поздно
EXTD=
EXTT0=
EXTT1=
EXTT2=
EXTT3=
EXTT4=
EXTT5=
EXTT6=
EXTT7=
EXTT8=
EXTT9=
EXTT10=
EXTT11=
EXTT12=
EXTT13=
EXTT14=
EXTT15=
EXTT16=
EXTT17=
PLAYORDER=
